<svg width="200" height="64" viewBox="0 0 200 64" fill="none" xmlns="http://www.w3.org/2000/svg">
<g clip-path="url(#clip0_5814_4840)">
<path d="M9.96804 13.7464L8.72855 10.169H3.22265L2.02231 13.7464H0L4.94488 0.288574H7.07156L12.0164 13.7464H9.96804ZM3.73149 8.67514H8.23276L5.9756 2.07072L3.73149 8.67514Z" fill="white"/>
<path d="M22.3367 13.7464L19.8055 3.21077L17.2483 13.7464H15.0433L11.1553 0.288574H13.295L16.1784 11.5711L18.7487 0.681695H20.9146L23.4848 11.5973L26.3813 0.288574H28.4558L24.5547 13.7464H22.3497H22.3367Z" fill="white"/>
<path d="M32.2656 7.35143C31.2088 6.94521 30.439 6.46036 29.9693 5.89688C29.4866 5.33341 29.2517 4.61269 29.2517 3.74783C29.2517 3.02711 29.4344 2.38501 29.7866 1.82154C30.152 1.25806 30.6608 0.812528 31.3393 0.498032C32.0177 0.170432 32.8136 0.0131836 33.7269 0.0131836C34.8881 0.0131836 36.0754 0.249056 37.3018 0.707696V2.28018C35.9971 1.87395 34.8489 1.67739 33.8574 1.67739C33.0223 1.67739 32.37 1.84775 31.9133 2.18845C31.4567 2.52915 31.2218 3.014 31.2218 3.6561C31.2218 4.18026 31.3784 4.58648 31.6915 4.88788C32.0047 5.18927 32.5787 5.50376 33.4138 5.80516L35.1751 6.46036C36.2189 6.85348 36.9756 7.31212 37.4323 7.86249C37.8889 8.41285 38.1238 9.12047 38.1238 9.98534C38.1238 11.2302 37.6802 12.213 36.806 12.9599C35.9188 13.6938 34.7315 14.0607 33.2441 14.0607C31.7568 14.0607 30.4781 13.7986 29.3822 13.2613V11.702C30.7391 12.1606 32.0047 12.3834 33.205 12.3834C34.1183 12.3834 34.8359 12.1868 35.3578 11.7806C35.8797 11.3744 36.1406 10.8371 36.1406 10.1557C36.1406 9.67084 35.984 9.27772 35.684 8.96322C35.3839 8.64873 34.875 8.34734 34.1444 8.05905L32.2656 7.33833V7.35143Z" fill="white"/>
<path d="M48.9009 44.4753V0.209961H52.6585V44.4753H48.9009Z" fill="white"/>
<path d="M82.98 44.4753V22.6309C82.98 19.866 82.4451 17.848 81.3883 16.59C80.3314 15.332 78.6353 14.703 76.2999 14.703C72.0595 14.703 67.9236 16.0658 63.892 18.7915V44.4753H60.2649V12.3443H63.4484L63.8268 16.0527C65.9013 14.5589 68.0932 13.4188 70.3764 12.6064C72.6597 11.7939 74.8908 11.3877 77.0566 11.3877C80.1488 11.3877 82.5103 12.2132 84.1412 13.8513C85.7721 15.4893 86.5941 17.9135 86.5941 21.0978V44.4753H82.967H82.98Z" fill="white"/>
<path d="M101.376 44.4753L88.4597 12.3442H92.4L103.333 40.7013L114.267 12.3442H118.077L105.16 44.4753H101.35H101.376Z" fill="white"/>
<path d="M121.834 29.0126C121.874 33.4811 122.852 36.7833 124.757 38.9192C126.662 41.0552 129.611 42.1166 133.603 42.1166C137.243 42.1166 140.753 41.3697 144.093 39.8758V42.8766C141.079 44.5802 137.504 45.4319 133.342 45.4319C128.293 45.4319 124.496 43.9905 121.952 41.1207C119.408 38.2509 118.142 33.979 118.142 28.3181C118.142 22.9585 119.421 18.7915 121.991 15.83C124.561 12.8684 128.149 11.3877 132.768 11.3877C136.63 11.3877 139.579 12.5015 141.64 14.703C143.701 16.9176 144.719 20.0888 144.719 24.2165C144.719 26.1297 144.589 27.7284 144.341 29.0126H121.821H121.834ZM132.455 14.6375C125.762 14.6375 122.213 18.4508 121.834 26.0773H141.17C141.209 25.4876 141.236 24.78 141.236 23.9676C141.236 20.9012 140.492 18.5818 139.005 17.0093C137.517 15.4368 135.338 14.6506 132.455 14.6506V14.6375Z" fill="white"/>
<path d="M172.249 44.4753V22.6309C172.249 19.866 171.714 17.848 170.657 16.59C169.6 15.332 167.904 14.703 165.569 14.703C161.328 14.703 157.192 16.0658 153.161 18.7915V44.4753H149.534V12.3443H152.717L153.096 16.0527C155.17 14.5589 157.362 13.4188 159.645 12.6064C161.928 11.7939 164.16 11.3877 166.325 11.3877C169.418 11.3877 171.779 12.2132 173.423 13.8513C175.054 15.4893 175.876 17.9135 175.876 21.0978V44.4753H172.249Z" fill="white"/>
<path d="M198.643 43.7676C196.869 44.4883 194.716 44.8552 192.224 44.8552C189.732 44.8552 187.814 44.1869 186.496 42.8372C185.178 41.5006 184.526 39.5481 184.526 36.9928V15.5284H178.551V12.9731L184.657 12.3966L185.165 3.00098H188.153V12.331H198.33V15.5284H188.153V36.7962C188.153 38.5391 188.519 39.7839 189.262 40.5047C190.006 41.2254 191.245 41.5923 192.981 41.5923C194.716 41.5923 196.608 41.3433 198.643 40.8323V43.7676Z" fill="white"/>
<path d="M0.795898 44.4753V23.142H2.90954L3.15744 26.2345C4.2273 25.042 5.27108 24.2034 6.3018 23.7054C7.33253 23.2075 8.49373 22.9585 9.7854 22.9585C10.2681 22.9585 10.8422 22.9978 11.5207 23.0895V25.2517C10.79 25.1993 10.1246 25.1731 9.5375 25.1731C8.24583 25.1731 7.09768 25.4089 6.09305 25.8938C5.08842 26.3786 4.12293 27.1518 3.19658 28.2263V44.4753H0.795898Z" fill="white"/>
<path d="M15.5261 34.2018C15.5522 37.1764 16.2046 39.3648 17.4701 40.78C18.7357 42.1953 20.6928 42.9029 23.3414 42.9029C25.7681 42.9029 28.0905 42.4049 30.3085 41.4221V43.4139C28.3123 44.5409 25.9247 45.1043 23.1717 45.1043C19.8186 45.1043 17.3005 44.1477 15.6044 42.2346C13.9213 40.3214 13.0732 37.4909 13.0732 33.7301C13.0732 30.1658 13.9213 27.4008 15.6305 25.4352C17.3397 23.4696 19.7142 22.4868 22.7934 22.4868C25.3506 22.4868 27.3207 23.2206 28.6907 24.6883C30.0607 26.1559 30.7391 28.2657 30.7391 31.0044C30.7391 32.2755 30.6608 33.3369 30.4912 34.1887H15.5392L15.5261 34.2018ZM22.5846 24.6621C18.1355 24.6621 15.7871 27.1912 15.5261 32.2624H28.3645C28.3906 31.8693 28.4037 31.3975 28.4037 30.8603C28.4037 28.8292 27.9079 27.2829 26.9293 26.2346C25.9377 25.1862 24.4895 24.6621 22.5846 24.6621Z" fill="white"/>
<path d="M36.3364 26.8242C35.7754 26.8242 35.3187 26.6407 34.9665 26.2738C34.6142 25.9069 34.4446 25.4352 34.4446 24.8717C34.4446 24.282 34.6142 23.7972 34.9665 23.4303C35.3187 23.0633 35.7754 22.8799 36.3364 22.8799C36.8974 22.8799 37.3541 23.0633 37.7064 23.4303C38.0586 23.7972 38.2283 24.282 38.2283 24.8717C38.2283 25.4614 38.0456 25.9069 37.7064 26.2738C37.3541 26.6407 36.8974 26.8242 36.3364 26.8242ZM36.3364 44.7243C35.7754 44.7243 35.3187 44.5408 34.9665 44.1739C34.6142 43.807 34.4446 43.3352 34.4446 42.7718C34.4446 42.1821 34.6142 41.6972 34.9665 41.3303C35.3187 40.9634 35.7754 40.78 36.3364 40.78C36.8974 40.78 37.3541 40.9634 37.7064 41.3303C38.0586 41.6972 38.2283 42.1821 38.2283 42.7718C38.2283 43.3615 38.0456 43.807 37.7064 44.1739C37.3541 44.5408 36.8974 44.7243 36.3364 44.7243Z" fill="white"/>
<path d="M0.769775 62.1262V55.8101H3.02694C3.96633 55.8101 4.68393 56.0852 5.19277 56.6225C5.7016 57.1598 5.9495 57.946 5.9495 58.955C5.9495 59.964 5.7016 60.7372 5.19277 61.2875C4.68393 61.8379 3.97938 62.1131 3.05303 62.1131H0.769775V62.1262ZM2.12668 56.8715V61.0648H2.90951C4.00547 61.0648 4.55345 60.3965 4.55345 59.0468V58.8633C4.55345 57.5267 4.00547 56.8584 2.90951 56.8584H2.13973L2.12668 56.8715Z" fill="white"/>
<path d="M8.16748 62.1262V55.8101H12.3034V56.8715H9.52439V58.3653H11.7815V59.4268H9.52439V61.0779H12.3034V62.1393H8.16748V62.1262Z" fill="white"/>
<path d="M18.7487 61.9561C18.2529 62.1396 17.718 62.2444 17.1047 62.2444C16.0871 62.2444 15.3042 61.9692 14.7823 61.4188C14.2605 60.8685 13.9995 60.0691 13.9995 58.9946C13.9995 57.9201 14.2735 57.1338 14.8215 56.5572C15.3695 55.9807 16.1392 55.6924 17.1439 55.6924C17.6788 55.6924 18.1746 55.771 18.6574 55.9414V57.0159C18.1094 56.8979 17.6527 56.8324 17.3004 56.8324C16.6742 56.8324 16.2045 57.0028 15.8914 57.3304C15.5782 57.658 15.4217 58.169 15.4217 58.8636V59.0732C15.4217 59.7546 15.5782 60.2526 15.8783 60.5933C16.1784 60.9209 16.6481 61.0912 17.2613 61.0912C17.6136 61.0912 18.1094 61.0257 18.7356 60.8816V61.9561H18.7487Z" fill="white"/>
<path d="M21.2669 62.244C21.019 62.244 20.8233 62.1654 20.6798 62.0213C20.5363 61.8771 20.458 61.6675 20.458 61.4316C20.458 61.1957 20.5363 60.9861 20.6798 60.8419C20.8233 60.6978 21.0321 60.6191 21.2669 60.6191C21.5018 60.6191 21.7105 60.6978 21.8541 60.8419C21.9976 60.9861 22.0759 61.1957 22.0759 61.4316C22.0759 61.6675 21.9976 61.8771 21.8541 62.0213C21.7105 62.1654 21.5018 62.244 21.2669 62.244Z" fill="white"/>
<path d="M27.5035 56.3867C27.8427 56.1246 28.1689 55.9411 28.4951 55.8232C28.8213 55.7052 29.1735 55.6528 29.5649 55.6528C30.139 55.6528 30.5957 55.8101 30.9479 56.1377C31.3002 56.4653 31.4698 56.8846 31.4698 57.4088C31.4698 57.7233 31.3785 58.0509 31.2089 58.3916C31.0393 58.7323 30.7522 59.1123 30.3739 59.5447C29.9955 59.9772 29.4867 60.4751 28.8473 61.0648H31.7308V62.1262H27.3469V61.1434C28.1167 60.3572 28.7038 59.7544 29.0822 59.3088C29.4606 58.8633 29.7346 58.5095 29.8781 58.2474C30.0216 57.9853 30.0999 57.7364 30.0999 57.5136C30.0999 57.2908 30.0346 57.1074 29.8911 56.9763C29.7476 56.8453 29.5649 56.7798 29.3301 56.7798C29.0692 56.7798 28.7691 56.8453 28.4559 56.9632C28.1428 57.0812 27.8297 57.2646 27.5035 57.4874V56.3998V56.3867Z" fill="white"/>
<path d="M37.8889 59.6363V58.6011H42.4293V59.6363H37.8889Z" fill="white"/>
<path d="M48.6919 62.1262V55.8101H50.9491C51.8884 55.8101 52.606 56.0852 53.1149 56.6225C53.6237 57.1598 53.8716 57.946 53.8716 58.955C53.8716 59.964 53.6237 60.7372 53.1149 61.2875C52.606 61.8379 51.9015 62.1131 50.9751 62.1131H48.6919V62.1262ZM50.0488 56.8715V61.0648H50.8316C51.9276 61.0648 52.4756 60.3965 52.4756 59.0468V58.8633C52.4756 57.5267 51.9276 56.8584 50.8316 56.8584H50.0618L50.0488 56.8715Z" fill="white"/>
<path d="M56.0898 62.1262V55.8101H60.2258V56.8715H57.4467V58.3653H59.7039V59.4268H57.4467V61.0779H60.2258V62.1393H56.0898V62.1262Z" fill="white"/>
<path d="M67.0363 61.9561C66.5405 62.1396 66.0055 62.2444 65.3923 62.2444C64.3747 62.2444 63.5918 61.9692 63.0699 61.4188C62.5481 60.8685 62.2871 60.0691 62.2871 58.9946C62.2871 57.9201 62.5611 57.1338 63.1091 56.5572C63.6571 55.9807 64.4268 55.6924 65.4315 55.6924C65.9664 55.6924 66.4622 55.771 66.9449 55.9414V57.0159C66.397 56.8979 65.9403 56.8324 65.588 56.8324C64.9618 56.8324 64.4921 57.0028 64.1789 57.3304C63.8658 57.658 63.7093 58.169 63.7093 58.8636V59.0732C63.7093 59.7546 63.8658 60.2526 64.1659 60.5933C64.466 60.9209 64.9357 61.0912 65.5489 61.0912C65.9012 61.0912 66.397 61.0257 67.0232 60.8816V61.9561H67.0363Z" fill="white"/>
<path d="M69.5545 62.244C69.3066 62.244 69.1109 62.1654 68.9674 62.0213C68.8239 61.8771 68.7456 61.6675 68.7456 61.4316C68.7456 61.1957 68.8239 60.9861 68.9674 60.8419C69.1109 60.6978 69.3197 60.6191 69.5545 60.6191C69.7894 60.6191 69.9981 60.6978 70.1417 60.8419C70.2852 60.9861 70.3635 61.1957 70.3635 61.4316C70.3635 61.6675 70.2852 61.8771 70.1417 62.0213C69.9981 62.1654 69.7894 62.244 69.5545 62.244Z" fill="white"/>
<path d="M78.3482 56.7011C77.8524 56.7011 77.4871 56.8583 77.2392 57.1597C76.9913 57.4742 76.8478 57.9591 76.8217 58.6405C77.3044 58.3915 77.7741 58.2605 78.2438 58.2605C78.8048 58.2605 79.2615 58.4308 79.6007 58.7715C79.9399 59.1122 80.1226 59.5577 80.1226 60.1081C80.1226 60.5274 80.0313 60.8944 79.8356 61.222C79.6529 61.5496 79.3789 61.7985 79.0397 61.982C78.6874 62.1654 78.283 62.2572 77.8133 62.2572C77.0435 62.2572 76.4694 61.9951 76.078 61.484C75.6866 60.973 75.5039 60.2129 75.5039 59.1908C75.5039 58.457 75.6083 57.828 75.817 57.3039C76.0258 56.7666 76.3259 56.3604 76.7303 56.0721C77.1348 55.7838 77.6175 55.6396 78.1916 55.6396C78.4526 55.6396 78.7266 55.6659 79.0136 55.7314C79.2876 55.7969 79.5224 55.8755 79.7181 55.9804V56.9238C79.5355 56.8452 79.3137 56.7928 79.0658 56.7404C78.8048 56.688 78.57 56.6749 78.3612 56.6749L78.3482 56.7011ZM77.8002 59.2695C77.5001 59.2695 77.1739 59.3481 76.8217 59.4922C76.8217 60.095 76.9261 60.5406 77.0826 60.8157C77.2522 61.0909 77.5001 61.222 77.8654 61.222C78.4787 61.222 78.7918 60.8944 78.7918 60.2261C78.7918 59.9116 78.7135 59.6757 78.5439 59.5053C78.3743 59.335 78.1264 59.2564 77.8133 59.2564L77.8002 59.2695Z" fill="white"/>
<path d="M81.6101 63.5676L82.145 60.7109H82.5234C82.8235 60.7109 83.0323 60.7502 83.1627 60.8289C83.2932 60.9075 83.3584 61.0254 83.3584 61.2089C83.3584 61.3399 83.3062 61.5365 83.2019 61.8117L82.4973 63.5676H81.6232H81.6101Z" fill="white"/>
<path d="M88.7208 56.3867C89.06 56.1246 89.3862 55.9411 89.7124 55.8232C90.0385 55.7052 90.3908 55.6528 90.7822 55.6528C91.3563 55.6528 91.813 55.8101 92.1652 56.1377C92.5175 56.4653 92.6871 56.8846 92.6871 57.4088C92.6871 57.7233 92.5958 58.0509 92.4262 58.3916C92.2566 58.7323 91.9695 59.1123 91.5912 59.5447C91.2128 59.9772 90.7039 60.4751 90.0646 61.0648H92.9481V62.1262H88.5642V61.1434C89.334 60.3572 89.9211 59.7544 90.2995 59.3088C90.6779 58.8633 90.9518 58.5095 91.0954 58.2474C91.2389 57.9853 91.3172 57.7364 91.3172 57.5136C91.3172 57.2908 91.2519 57.1074 91.1084 56.9763C90.9649 56.8453 90.7822 56.7798 90.5474 56.7798C90.2864 56.7798 89.9864 56.8453 89.6732 56.9632C89.3601 57.0812 89.047 57.2646 88.7208 57.4874V56.3998V56.3867Z" fill="white"/>
<path d="M96.9927 62.2573C96.223 62.2573 95.6358 61.969 95.2314 61.4056C94.8139 60.829 94.6182 60.0166 94.6182 58.9551C94.6182 57.8937 94.8269 57.0813 95.2444 56.5178C95.6619 55.9543 96.2491 55.666 97.0058 55.666C97.7625 55.666 98.3497 55.9543 98.7672 56.5178C99.1847 57.0813 99.3934 57.9068 99.3934 58.9551C99.3934 60.0034 99.1847 60.829 98.7802 61.4056C98.3758 61.9822 97.7756 62.2573 97.0058 62.2573H96.9927ZM96.9927 61.1697C97.3581 61.1697 97.619 60.9994 97.7756 60.6586C97.9322 60.3179 98.0104 59.7545 98.0104 58.9551C98.0104 58.1558 97.9322 57.6054 97.7756 57.2647C97.619 56.924 97.3581 56.7537 96.9927 56.7537C96.6274 56.7537 96.3665 56.924 96.2099 57.2647C96.0534 57.6054 95.9751 58.1689 95.9751 58.9551C95.9751 59.7414 96.0534 60.3179 96.2099 60.6586C96.3665 60.9994 96.6274 61.1697 96.9927 61.1697Z" fill="white"/>
<path d="M101.259 56.3867C101.598 56.1246 101.925 55.9411 102.251 55.8232C102.577 55.7052 102.929 55.6528 103.321 55.6528C103.895 55.6528 104.351 55.8101 104.704 56.1377C105.056 56.4653 105.225 56.8846 105.225 57.4088C105.225 57.7233 105.134 58.0509 104.964 58.3916C104.795 58.7323 104.508 59.1123 104.129 59.5447C103.751 59.9772 103.242 60.4751 102.603 61.0648H105.486V62.1262H101.103V61.1434C101.872 60.3572 102.459 59.7544 102.838 59.3088C103.216 58.8633 103.49 58.5095 103.634 58.2474C103.777 57.9853 103.855 57.7364 103.855 57.5136C103.855 57.2908 103.79 57.1074 103.647 56.9763C103.503 56.8453 103.321 56.7798 103.086 56.7798C102.825 56.7798 102.525 56.8453 102.212 56.9632C101.898 57.0812 101.585 57.2646 101.259 57.4874V56.3998V56.3867Z" fill="white"/>
<path d="M109.988 62.1263V60.8814H107.052V59.9117L109.896 55.8232H111.136V59.8724H111.932V60.8945H111.136V62.1394H109.988V62.1263ZM109.988 59.8593V57.435L108.305 59.8593H109.988Z" fill="white"/>
<path d="M117.059 64.0001V55.2598H118.403V64.0001H117.059Z" fill="white"/>
<path d="M124 62.1262V55.8101H125.357V61.0255H128.11V62.1131H123.987L124 62.1262Z" fill="white"/>
<path d="M133.916 62.1262L133.473 60.6848H131.32L130.889 62.1262H129.467L131.685 55.8101H133.185L135.403 62.1262H133.929H133.916ZM131.62 59.702H133.199L132.403 57.0549L131.62 59.702Z" fill="white"/>
<path d="M138.352 59.3613C137.817 59.1647 137.426 58.9157 137.191 58.6274C136.956 58.3392 136.839 57.9722 136.839 57.5267C136.839 56.9501 137.047 56.5046 137.465 56.1639C137.882 55.8232 138.443 55.6528 139.161 55.6528C139.748 55.6528 140.335 55.7577 140.896 55.9804V57.0156C140.309 56.8322 139.761 56.7405 139.265 56.7405C138.548 56.7405 138.196 56.9763 138.196 57.435C138.196 57.6053 138.261 57.7495 138.378 57.8543C138.496 57.9591 138.73 58.0771 139.07 58.195L139.735 58.444C140.296 58.6536 140.701 58.8895 140.935 59.1647C141.17 59.4399 141.288 59.8068 141.288 60.2392C141.288 60.8682 141.066 61.3531 140.622 61.72C140.179 62.0869 139.565 62.2573 138.783 62.2573C138.443 62.2573 138.104 62.231 137.765 62.1655C137.426 62.1 137.139 62.0214 136.891 61.9034V60.8682C137.191 60.96 137.517 61.0255 137.856 61.091C138.196 61.1434 138.509 61.1696 138.796 61.1696C139.148 61.1696 139.422 61.1041 139.618 60.9731C139.813 60.842 139.905 60.6586 139.905 60.4096C139.905 60.2261 139.839 60.0689 139.722 59.964C139.605 59.8592 139.37 59.7282 139.004 59.5971L138.313 59.3482L138.352 59.3613Z" fill="white"/>
<path d="M148.268 62.1262L146.037 55.8101H147.537L149.012 60.7765L150.473 55.8101H151.947L149.716 62.1262H148.281H148.268Z" fill="white"/>
<path d="M153.683 62.1262V55.8101H157.819V56.8715H155.04V58.3653H157.297V59.4268H155.04V61.0779H157.819V62.1393H153.683V62.1262Z" fill="white"/>
<path d="M162.855 61.1565C163.037 61.1565 163.259 61.1434 163.52 61.1172V59.584H162.346V58.6012H164.773V61.7593C164.486 61.9165 164.147 62.0345 163.755 62.1131C163.364 62.1917 162.959 62.2441 162.555 62.2441C161.576 62.2441 160.819 61.969 160.298 61.4186C159.763 60.8682 159.502 60.082 159.502 59.0599C159.502 57.9853 159.776 57.1598 160.324 56.5832C160.872 56.0197 161.668 55.7314 162.698 55.7314C163.416 55.7314 164.029 55.8494 164.538 56.0984V57.1336C163.912 56.937 163.338 56.8322 162.842 56.8322C162.176 56.8322 161.681 57.0025 161.367 57.3432C161.054 57.6839 160.898 58.2081 160.898 58.9288V59.0861C160.898 59.8068 161.054 60.331 161.367 60.6586C161.681 60.9862 162.176 61.1565 162.855 61.1565Z" fill="white"/>
<path d="M170.84 62.1262L170.396 60.6848H168.243L167.813 62.1262H166.391L168.609 55.8101H170.109L172.327 62.1262H170.853H170.84ZM168.543 59.702H170.122L169.326 57.0549L168.543 59.702Z" fill="white"/>
<path d="M175.276 59.3613C174.741 59.1647 174.349 58.9157 174.114 58.6274C173.88 58.3392 173.762 57.9722 173.762 57.5267C173.762 56.9501 173.971 56.5046 174.388 56.1639C174.806 55.8232 175.367 55.6528 176.085 55.6528C176.672 55.6528 177.259 55.7577 177.82 55.9804V57.0156C177.233 56.8322 176.685 56.7405 176.189 56.7405C175.471 56.7405 175.119 56.9763 175.119 57.435C175.119 57.6053 175.184 57.7495 175.302 57.8543C175.419 57.9591 175.654 58.0771 175.993 58.195L176.659 58.444C177.22 58.6536 177.624 58.8895 177.859 59.1647C178.094 59.4399 178.211 59.8068 178.211 60.2392C178.211 60.8682 177.99 61.3531 177.546 61.72C177.102 62.0869 176.489 62.2573 175.706 62.2573C175.367 62.2573 175.028 62.231 174.689 62.1655C174.349 62.1 174.062 62.0214 173.814 61.9034V60.8682C174.114 60.96 174.441 61.0255 174.78 61.091C175.119 61.1434 175.432 61.1696 175.719 61.1696C176.072 61.1696 176.346 61.1041 176.541 60.9731C176.737 60.842 176.828 60.6586 176.828 60.4096C176.828 60.2261 176.763 60.0689 176.646 59.964C176.528 59.8592 176.293 59.7282 175.928 59.5971L175.237 59.3482L175.276 59.3613Z" fill="white"/>
<path d="M179.803 63.5676L180.338 60.7109H180.716C181.016 60.7109 181.225 60.7502 181.356 60.8289C181.486 60.9075 181.551 61.0254 181.551 61.2089C181.551 61.3399 181.499 61.5365 181.395 61.8117L180.69 63.5676H179.816H179.803Z" fill="white"/>
<path d="M188.362 57.7495V62.1262H187.162V55.8101H188.61L191.167 60.2261V55.8101H192.367V62.1262H190.919L188.362 57.7495Z" fill="white"/>
<path d="M196.334 62.1262L194.103 55.8101H195.603L197.078 60.7765L198.539 55.8101H200.013L197.782 62.1262H196.347H196.334Z" fill="white"/>
</g>
<defs>
<clipPath id="clip0_5814_4840">
<rect width="200" height="64" fill="white"/>
</clipPath>
</defs>
</svg>
